G04 #@! TF.GenerationSoftware,KiCad,Pcbnew,(6.0.10-0)*
G04 #@! TF.CreationDate,2023-02-13T22:43:01-05:00*
G04 #@! TF.ProjectId,stencil,7374656e-6369-46c2-9e6b-696361645f70,rev?*
G04 #@! TF.SameCoordinates,Original*
G04 #@! TF.FileFunction,Paste,Top*
G04 #@! TF.FilePolarity,Positive*
%FSLAX46Y46*%
G04 Gerber Fmt 4.6, Leading zero omitted, Abs format (unit mm)*
G04 Created by KiCad (PCBNEW (6.0.10-0)) date 2023-02-13 22:43:01*
%MOMM*%
%LPD*%
G01*
G04 APERTURE LIST*
%ADD10C,0.500000*%
%ADD11C,1.000000*%
%ADD12C,1.050000*%
G04 APERTURE END LIST*
D10*
X59500000Y71500000D02*
G75*
G03*
X59000000Y72000000I-500000J0D01*
G01*
X71500000Y24500000D02*
G75*
G03*
X72000000Y25000000I0J500000D01*
G01*
X72000000Y71000000D02*
X72000000Y61000000D01*
X72000000Y47000000D02*
G75*
G03*
X71500000Y47500000I-500000J0D01*
G01*
X-12000000Y35000000D02*
X-12000000Y25000000D01*
X12500000Y-11500000D02*
G75*
G03*
X13000000Y-12000000I500000J0D01*
G01*
X13000000Y72000000D02*
X23000000Y72000000D01*
D11*
X30500000Y-8750000D02*
G75*
G03*
X30500000Y-8750000I-500000J0D01*
G01*
D10*
X71500000Y48500000D02*
G75*
G03*
X72000000Y49000000I0J500000D01*
G01*
X-11000000Y72000000D02*
G75*
G03*
X-12000000Y71000000I0J-1000000D01*
G01*
X48500000Y-11500000D02*
G75*
G03*
X49000000Y-12000000I500000J0D01*
G01*
X-12000000Y59000000D02*
X-12000000Y49000000D01*
D12*
X69275000Y68750000D02*
G75*
G03*
X69275000Y68750000I-525000J0D01*
G01*
D10*
X61000000Y72000000D02*
X71000000Y72000000D01*
X-11000000Y72000000D02*
X-1000000Y72000000D01*
X71500000Y36500000D02*
G75*
G03*
X72000000Y37000000I0J500000D01*
G01*
X47500000Y71500000D02*
G75*
G03*
X47000000Y72000000I-500000J0D01*
G01*
X59000000Y-12000000D02*
G75*
G03*
X59500000Y-11500000I0J500000D01*
G01*
X23500000Y71500000D02*
G75*
G03*
X23000000Y72000000I-500000J0D01*
G01*
X49000000Y72000000D02*
X59000000Y72000000D01*
X49000000Y-12000000D02*
X59000000Y-12000000D01*
X-12000000Y61000000D02*
G75*
G03*
X-11500000Y60500000I500000J0D01*
G01*
X-11500000Y59500000D02*
G75*
G03*
X-12000000Y59000000I0J-500000D01*
G01*
D11*
X-8250000Y30000000D02*
G75*
G03*
X-8250000Y30000000I-500000J0D01*
G01*
D10*
X-1000000Y-12000000D02*
G75*
G03*
X-500000Y-11500000I0J500000D01*
G01*
X23000000Y-12000000D02*
G75*
G03*
X23500000Y-11500000I0J500000D01*
G01*
D11*
X69250000Y49375000D02*
G75*
G03*
X69250000Y49375000I-500000J0D01*
G01*
X-8250000Y10625000D02*
G75*
G03*
X-8250000Y10625000I-500000J0D01*
G01*
D10*
X-12000000Y37000000D02*
G75*
G03*
X-11500000Y36500000I500000J0D01*
G01*
D12*
X-8225000Y68750000D02*
G75*
G03*
X-8225000Y68750000I-525000J0D01*
G01*
D10*
X60500000Y-11500000D02*
G75*
G03*
X61000000Y-12000000I500000J0D01*
G01*
X72000000Y47000000D02*
X72000000Y37000000D01*
X72000000Y35000000D02*
X72000000Y25000000D01*
X72000000Y59000000D02*
G75*
G03*
X71500000Y59500000I-500000J0D01*
G01*
X72000000Y23000000D02*
G75*
G03*
X71500000Y23500000I-500000J0D01*
G01*
X-12000000Y-1000000D02*
X-12000000Y-11000000D01*
X72000000Y23000000D02*
X72000000Y13000000D01*
X24500000Y-11500000D02*
G75*
G03*
X25000000Y-12000000I500000J0D01*
G01*
X-11500000Y35500000D02*
G75*
G03*
X-12000000Y35000000I0J-500000D01*
G01*
D12*
X-8225000Y-8750000D02*
G75*
G03*
X-8225000Y-8750000I-525000J0D01*
G01*
D10*
X35500000Y71500000D02*
G75*
G03*
X35000000Y72000000I-500000J0D01*
G01*
X-12000000Y71000000D02*
X-12000000Y61000000D01*
X-12000000Y1000000D02*
G75*
G03*
X-11500000Y500000I500000J0D01*
G01*
X25000000Y72000000D02*
X35000000Y72000000D01*
X61000000Y-12000000D02*
X71000000Y-12000000D01*
X11500000Y71500000D02*
G75*
G03*
X11000000Y72000000I-500000J0D01*
G01*
X72000000Y71000000D02*
G75*
G03*
X71000000Y72000000I-1000000J0D01*
G01*
D11*
X69250000Y10625000D02*
G75*
G03*
X69250000Y10625000I-500000J0D01*
G01*
D10*
X61000000Y72000000D02*
G75*
G03*
X60500000Y71500000I0J-500000D01*
G01*
X11000000Y-12000000D02*
G75*
G03*
X11500000Y-11500000I0J500000D01*
G01*
X-11500000Y23500000D02*
G75*
G03*
X-12000000Y23000000I0J-500000D01*
G01*
X37000000Y72000000D02*
X47000000Y72000000D01*
X49000000Y72000000D02*
G75*
G03*
X48500000Y71500000I0J-500000D01*
G01*
X-12000000Y47000000D02*
X-12000000Y37000000D01*
X36500000Y-11500000D02*
G75*
G03*
X37000000Y-12000000I500000J0D01*
G01*
X37000000Y72000000D02*
G75*
G03*
X36500000Y71500000I0J-500000D01*
G01*
X13000000Y-12000000D02*
X23000000Y-12000000D01*
X1000000Y72000000D02*
X11000000Y72000000D01*
X1000000Y-12000000D02*
X11000000Y-12000000D01*
X-11000000Y-12000000D02*
X-1000000Y-12000000D01*
X72000000Y11000000D02*
G75*
G03*
X71500000Y11500000I-500000J0D01*
G01*
X1000000Y72000000D02*
G75*
G03*
X500000Y71500000I0J-500000D01*
G01*
X72000000Y59000000D02*
X72000000Y49000000D01*
X-500000Y71500000D02*
G75*
G03*
X-1000000Y72000000I-500000J0D01*
G01*
X-11500000Y11500000D02*
G75*
G03*
X-12000000Y11000000I0J-500000D01*
G01*
X-12000000Y11000000D02*
X-12000000Y1000000D01*
X47000000Y-12000000D02*
G75*
G03*
X47500000Y-11500000I0J500000D01*
G01*
X72000000Y-1000000D02*
G75*
G03*
X71500000Y-500000I-500000J0D01*
G01*
D11*
X49875000Y68750000D02*
G75*
G03*
X49875000Y68750000I-500000J0D01*
G01*
D10*
X25000000Y-12000000D02*
X35000000Y-12000000D01*
X72000000Y35000000D02*
G75*
G03*
X71500000Y35500000I-500000J0D01*
G01*
X13000000Y72000000D02*
G75*
G03*
X12500000Y71500000I0J-500000D01*
G01*
X37000000Y-12000000D02*
X47000000Y-12000000D01*
X500000Y-11500000D02*
G75*
G03*
X1000000Y-12000000I500000J0D01*
G01*
X71500000Y12500000D02*
G75*
G03*
X72000000Y13000000I0J500000D01*
G01*
X72000000Y-1000000D02*
X72000000Y-11000000D01*
D11*
X49875000Y-8750000D02*
G75*
G03*
X49875000Y-8750000I-500000J0D01*
G01*
D12*
X69275000Y-8750000D02*
G75*
G03*
X69275000Y-8750000I-525000J0D01*
G01*
D10*
X71500000Y500000D02*
G75*
G03*
X72000000Y1000000I0J500000D01*
G01*
D11*
X11125000Y-8750000D02*
G75*
G03*
X11125000Y-8750000I-500000J0D01*
G01*
X30500000Y68750000D02*
G75*
G03*
X30500000Y68750000I-500000J0D01*
G01*
D10*
X35000000Y-12000000D02*
G75*
G03*
X35500000Y-11500000I0J500000D01*
G01*
X72000000Y11000000D02*
X72000000Y1000000D01*
X-11500000Y47500000D02*
G75*
G03*
X-12000000Y47000000I0J-500000D01*
G01*
X-12000000Y13000000D02*
G75*
G03*
X-11500000Y12500000I500000J0D01*
G01*
X25000000Y72000000D02*
G75*
G03*
X24500000Y71500000I0J-500000D01*
G01*
X-12000000Y-11000000D02*
G75*
G03*
X-11000000Y-12000000I1000000J0D01*
G01*
X-12000000Y49000000D02*
G75*
G03*
X-11500000Y48500000I500000J0D01*
G01*
X-12000000Y25000000D02*
G75*
G03*
X-11500000Y24500000I500000J0D01*
G01*
D11*
X-8250000Y49375000D02*
G75*
G03*
X-8250000Y49375000I-500000J0D01*
G01*
D10*
X-11500000Y-500000D02*
G75*
G03*
X-12000000Y-1000000I0J-500000D01*
G01*
D11*
X11125000Y68750000D02*
G75*
G03*
X11125000Y68750000I-500000J0D01*
G01*
D10*
X71000000Y-12000000D02*
G75*
G03*
X72000000Y-11000000I0J1000000D01*
G01*
X-12000000Y23000000D02*
X-12000000Y13000000D01*
D11*
X69250000Y30000000D02*
G75*
G03*
X69250000Y30000000I-500000J0D01*
G01*
D10*
X71500000Y60500000D02*
G75*
G03*
X72000000Y61000000I0J500000D01*
G01*
M02*
