G04 #@! TF.GenerationSoftware,KiCad,Pcbnew,(6.0.10-0)*
G04 #@! TF.CreationDate,2023-01-17T21:31:14-05:00*
G04 #@! TF.ProjectId,stencil,7374656e-6369-46c2-9e6b-696361645f70,rev?*
G04 #@! TF.SameCoordinates,Original*
G04 #@! TF.FileFunction,Paste,Bot*
G04 #@! TF.FilePolarity,Positive*
%FSLAX46Y46*%
G04 Gerber Fmt 4.6, Leading zero omitted, Abs format (unit mm)*
G04 Created by KiCad (PCBNEW (6.0.10-0)) date 2023-01-17 21:31:14*
%MOMM*%
%LPD*%
G01*
G04 APERTURE LIST*
G04 Aperture macros list*
%AMRoundRect*
0 Rectangle with rounded corners*
0 $1 Rounding radius*
0 $2 $3 $4 $5 $6 $7 $8 $9 X,Y pos of 4 corners*
0 Add a 4 corners polygon primitive as box body*
4,1,4,$2,$3,$4,$5,$6,$7,$8,$9,$2,$3,0*
0 Add four circle primitives for the rounded corners*
1,1,$1+$1,$2,$3*
1,1,$1+$1,$4,$5*
1,1,$1+$1,$6,$7*
1,1,$1+$1,$8,$9*
0 Add four rect primitives between the rounded corners*
20,1,$1+$1,$2,$3,$4,$5,0*
20,1,$1+$1,$4,$5,$6,$7,0*
20,1,$1+$1,$6,$7,$8,$9,0*
20,1,$1+$1,$8,$9,$2,$3,0*%
G04 Aperture macros list end*
%ADD10C,0.500000*%
%ADD11C,1.000000*%
%ADD12C,1.050000*%
%ADD13RoundRect,0.237500X-0.237500X0.300000X-0.237500X-0.300000X0.237500X-0.300000X0.237500X0.300000X0*%
%ADD14R,1.700000X0.820000*%
%ADD15RoundRect,0.205000X0.645000X0.205000X-0.645000X0.205000X-0.645000X-0.205000X0.645000X-0.205000X0*%
%ADD16RoundRect,0.160000X0.197500X0.160000X-0.197500X0.160000X-0.197500X-0.160000X0.197500X-0.160000X0*%
%ADD17RoundRect,0.250001X0.462499X0.624999X-0.462499X0.624999X-0.462499X-0.624999X0.462499X-0.624999X0*%
%ADD18RoundRect,0.237500X-0.300000X-0.237500X0.300000X-0.237500X0.300000X0.237500X-0.300000X0.237500X0*%
%ADD19RoundRect,0.237500X0.044194X0.380070X-0.380070X-0.044194X-0.044194X-0.380070X0.380070X0.044194X0*%
%ADD20R,0.600000X1.450000*%
%ADD21R,0.300000X1.450000*%
%ADD22RoundRect,0.237500X0.237500X-0.300000X0.237500X0.300000X-0.237500X0.300000X-0.237500X-0.300000X0*%
%ADD23RoundRect,0.237500X0.250000X0.237500X-0.250000X0.237500X-0.250000X-0.237500X0.250000X-0.237500X0*%
%ADD24RoundRect,0.250000X0.000000X0.413257X-0.413257X0.000000X0.000000X-0.413257X0.413257X0.000000X0*%
%ADD25RoundRect,0.050000X0.238649X0.309359X-0.309359X-0.238649X-0.238649X-0.309359X0.309359X0.238649X0*%
%ADD26RoundRect,0.050000X-0.238649X0.309359X-0.309359X0.238649X0.238649X-0.309359X0.309359X-0.238649X0*%
%ADD27RoundRect,0.155000X0.212500X0.155000X-0.212500X0.155000X-0.212500X-0.155000X0.212500X-0.155000X0*%
%ADD28RoundRect,0.160000X-0.197500X-0.160000X0.197500X-0.160000X0.197500X0.160000X-0.197500X0.160000X0*%
%ADD29RoundRect,0.237500X0.300000X0.237500X-0.300000X0.237500X-0.300000X-0.237500X0.300000X-0.237500X0*%
%ADD30RoundRect,0.237500X-0.380070X0.044194X0.044194X-0.380070X0.380070X-0.044194X-0.044194X0.380070X0*%
%ADD31RoundRect,0.150000X0.150000X-0.650000X0.150000X0.650000X-0.150000X0.650000X-0.150000X-0.650000X0*%
G04 APERTURE END LIST*
D10*
X36500000Y-11500000D02*
G75*
G03*
X37000000Y-12000000I500000J0D01*
G01*
X-12000000Y23000000D02*
X-12000000Y13000000D01*
X72000000Y-1000000D02*
G75*
G03*
X71500000Y-500000I-500000J0D01*
G01*
X-12000000Y59000000D02*
X-12000000Y49000000D01*
X25000000Y-12000000D02*
X35000000Y-12000000D01*
X24500000Y-11500000D02*
G75*
G03*
X25000000Y-12000000I500000J0D01*
G01*
X72000000Y71000000D02*
G75*
G03*
X71000000Y72000000I-1000000J0D01*
G01*
D11*
X69250000Y30000000D02*
G75*
G03*
X69250000Y30000000I-500000J0D01*
G01*
D10*
X-12000000Y47000000D02*
X-12000000Y37000000D01*
X48500000Y-11500000D02*
G75*
G03*
X49000000Y-12000000I500000J0D01*
G01*
X-12000000Y71000000D02*
X-12000000Y61000000D01*
X72000000Y11000000D02*
G75*
G03*
X71500000Y11500000I-500000J0D01*
G01*
X13000000Y-12000000D02*
X23000000Y-12000000D01*
D11*
X69250000Y10625000D02*
G75*
G03*
X69250000Y10625000I-500000J0D01*
G01*
D10*
X-11000000Y72000000D02*
X-1000000Y72000000D01*
X-1000000Y-12000000D02*
G75*
G03*
X-500000Y-11500000I0J500000D01*
G01*
X12500000Y-11500000D02*
G75*
G03*
X13000000Y-12000000I500000J0D01*
G01*
D12*
X69275000Y68750000D02*
G75*
G03*
X69275000Y68750000I-525000J0D01*
G01*
D10*
X-12000000Y49000000D02*
G75*
G03*
X-11500000Y48500000I500000J0D01*
G01*
X11000000Y-12000000D02*
G75*
G03*
X11500000Y-11500000I0J500000D01*
G01*
X72000000Y-1000000D02*
X72000000Y-11000000D01*
X37000000Y72000000D02*
X47000000Y72000000D01*
D11*
X11125000Y-8750000D02*
G75*
G03*
X11125000Y-8750000I-500000J0D01*
G01*
D10*
X37000000Y72000000D02*
G75*
G03*
X36500000Y71500000I0J-500000D01*
G01*
D11*
X69250000Y49375000D02*
G75*
G03*
X69250000Y49375000I-500000J0D01*
G01*
D10*
X-500000Y71500000D02*
G75*
G03*
X-1000000Y72000000I-500000J0D01*
G01*
X25000000Y72000000D02*
X35000000Y72000000D01*
X1000000Y72000000D02*
G75*
G03*
X500000Y71500000I0J-500000D01*
G01*
X61000000Y72000000D02*
X71000000Y72000000D01*
X35000000Y-12000000D02*
G75*
G03*
X35500000Y-11500000I0J500000D01*
G01*
X72000000Y59000000D02*
X72000000Y49000000D01*
X13000000Y72000000D02*
G75*
G03*
X12500000Y71500000I0J-500000D01*
G01*
D11*
X49875000Y-8750000D02*
G75*
G03*
X49875000Y-8750000I-500000J0D01*
G01*
X30500000Y-8750000D02*
G75*
G03*
X30500000Y-8750000I-500000J0D01*
G01*
D10*
X72000000Y59000000D02*
G75*
G03*
X71500000Y59500000I-500000J0D01*
G01*
X72000000Y47000000D02*
X72000000Y37000000D01*
X72000000Y11000000D02*
X72000000Y1000000D01*
X-11500000Y47500000D02*
G75*
G03*
X-12000000Y47000000I0J-500000D01*
G01*
X72000000Y35000000D02*
G75*
G03*
X71500000Y35500000I-500000J0D01*
G01*
X-12000000Y-1000000D02*
X-12000000Y-11000000D01*
X59500000Y71500000D02*
G75*
G03*
X59000000Y72000000I-500000J0D01*
G01*
X72000000Y71000000D02*
X72000000Y61000000D01*
X71500000Y36500000D02*
G75*
G03*
X72000000Y37000000I0J500000D01*
G01*
X-12000000Y13000000D02*
G75*
G03*
X-11500000Y12500000I500000J0D01*
G01*
X61000000Y72000000D02*
G75*
G03*
X60500000Y71500000I0J-500000D01*
G01*
X59000000Y-12000000D02*
G75*
G03*
X59500000Y-11500000I0J500000D01*
G01*
X71000000Y-12000000D02*
G75*
G03*
X72000000Y-11000000I0J1000000D01*
G01*
X47000000Y-12000000D02*
G75*
G03*
X47500000Y-11500000I0J500000D01*
G01*
D12*
X-8225000Y-8750000D02*
G75*
G03*
X-8225000Y-8750000I-525000J0D01*
G01*
D10*
X37000000Y-12000000D02*
X47000000Y-12000000D01*
X-11500000Y23500000D02*
G75*
G03*
X-12000000Y23000000I0J-500000D01*
G01*
X-12000000Y11000000D02*
X-12000000Y1000000D01*
D11*
X11125000Y68750000D02*
G75*
G03*
X11125000Y68750000I-500000J0D01*
G01*
D10*
X60500000Y-11500000D02*
G75*
G03*
X61000000Y-12000000I500000J0D01*
G01*
X49000000Y72000000D02*
G75*
G03*
X48500000Y71500000I0J-500000D01*
G01*
X-11500000Y-500000D02*
G75*
G03*
X-12000000Y-1000000I0J-500000D01*
G01*
X-11000000Y72000000D02*
G75*
G03*
X-12000000Y71000000I0J-1000000D01*
G01*
X-11500000Y11500000D02*
G75*
G03*
X-12000000Y11000000I0J-500000D01*
G01*
D11*
X49875000Y68750000D02*
G75*
G03*
X49875000Y68750000I-500000J0D01*
G01*
D10*
X-12000000Y61000000D02*
G75*
G03*
X-11500000Y60500000I500000J0D01*
G01*
X72000000Y47000000D02*
G75*
G03*
X71500000Y47500000I-500000J0D01*
G01*
X25000000Y72000000D02*
G75*
G03*
X24500000Y71500000I0J-500000D01*
G01*
X-12000000Y-11000000D02*
G75*
G03*
X-11000000Y-12000000I1000000J0D01*
G01*
X35500000Y71500000D02*
G75*
G03*
X35000000Y72000000I-500000J0D01*
G01*
X23500000Y71500000D02*
G75*
G03*
X23000000Y72000000I-500000J0D01*
G01*
X-12000000Y35000000D02*
X-12000000Y25000000D01*
X71500000Y60500000D02*
G75*
G03*
X72000000Y61000000I0J500000D01*
G01*
X-12000000Y25000000D02*
G75*
G03*
X-11500000Y24500000I500000J0D01*
G01*
D11*
X-8250000Y10625000D02*
G75*
G03*
X-8250000Y10625000I-500000J0D01*
G01*
D10*
X61000000Y-12000000D02*
X71000000Y-12000000D01*
X500000Y-11500000D02*
G75*
G03*
X1000000Y-12000000I500000J0D01*
G01*
X13000000Y72000000D02*
X23000000Y72000000D01*
X23000000Y-12000000D02*
G75*
G03*
X23500000Y-11500000I0J500000D01*
G01*
X72000000Y23000000D02*
G75*
G03*
X71500000Y23500000I-500000J0D01*
G01*
X71500000Y500000D02*
G75*
G03*
X72000000Y1000000I0J500000D01*
G01*
X71500000Y12500000D02*
G75*
G03*
X72000000Y13000000I0J500000D01*
G01*
X72000000Y35000000D02*
X72000000Y25000000D01*
X-12000000Y1000000D02*
G75*
G03*
X-11500000Y500000I500000J0D01*
G01*
X-12000000Y37000000D02*
G75*
G03*
X-11500000Y36500000I500000J0D01*
G01*
D11*
X30500000Y68750000D02*
G75*
G03*
X30500000Y68750000I-500000J0D01*
G01*
D10*
X49000000Y-12000000D02*
X59000000Y-12000000D01*
X11500000Y71500000D02*
G75*
G03*
X11000000Y72000000I-500000J0D01*
G01*
D11*
X-8250000Y49375000D02*
G75*
G03*
X-8250000Y49375000I-500000J0D01*
G01*
D10*
X71500000Y48500000D02*
G75*
G03*
X72000000Y49000000I0J500000D01*
G01*
D12*
X69275000Y-8750000D02*
G75*
G03*
X69275000Y-8750000I-525000J0D01*
G01*
X-8225000Y68750000D02*
G75*
G03*
X-8225000Y68750000I-525000J0D01*
G01*
D10*
X-11500000Y35500000D02*
G75*
G03*
X-12000000Y35000000I0J-500000D01*
G01*
X-11500000Y59500000D02*
G75*
G03*
X-12000000Y59000000I0J-500000D01*
G01*
X-11000000Y-12000000D02*
X-1000000Y-12000000D01*
X1000000Y72000000D02*
X11000000Y72000000D01*
X72000000Y23000000D02*
X72000000Y13000000D01*
X71500000Y24500000D02*
G75*
G03*
X72000000Y25000000I0J500000D01*
G01*
X49000000Y72000000D02*
X59000000Y72000000D01*
X1000000Y-12000000D02*
X11000000Y-12000000D01*
X47500000Y71500000D02*
G75*
G03*
X47000000Y72000000I-500000J0D01*
G01*
D11*
X-8250000Y30000000D02*
G75*
G03*
X-8250000Y30000000I-500000J0D01*
G01*
D13*
G04 #@! TO.C,C18*
X34700000Y16112500D03*
X34700000Y14387500D03*
G04 #@! TD*
D14*
G04 #@! TO.C,D3*
X42075000Y14645000D03*
X42075000Y16145000D03*
D15*
X36975000Y16145000D03*
D14*
X36975000Y14645000D03*
G04 #@! TD*
D16*
G04 #@! TO.C,R5*
X22697500Y31750000D03*
X21502500Y31750000D03*
G04 #@! TD*
D17*
G04 #@! TO.C,F1*
X23887500Y49500000D03*
X20912500Y49500000D03*
G04 #@! TD*
D18*
G04 #@! TO.C,C17*
X14537500Y16975000D03*
X16262500Y16975000D03*
G04 #@! TD*
D19*
G04 #@! TO.C,C5*
X26459880Y25509880D03*
X25240120Y24290120D03*
G04 #@! TD*
D20*
G04 #@! TO.C,J1*
X13750000Y51955000D03*
X14550000Y51955000D03*
D21*
X15750000Y51955000D03*
X16750000Y51955000D03*
X17250000Y51955000D03*
X18250000Y51955000D03*
D20*
X19450000Y51955000D03*
X20250000Y51955000D03*
X20250000Y51955000D03*
X19450000Y51955000D03*
D21*
X18750000Y51955000D03*
X17750000Y51955000D03*
X16250000Y51955000D03*
X15250000Y51955000D03*
D20*
X14550000Y51955000D03*
X13750000Y51955000D03*
G04 #@! TD*
D22*
G04 #@! TO.C,C12*
X23450000Y37312500D03*
X23450000Y39037500D03*
G04 #@! TD*
D23*
G04 #@! TO.C,R8*
X36125000Y37100000D03*
X34300000Y37100000D03*
G04 #@! TD*
D24*
G04 #@! TO.C,U1*
X29098439Y30000000D03*
X30000000Y29098439D03*
X30901561Y30000000D03*
X30000000Y30901561D03*
D25*
X30592202Y34269157D03*
X30875045Y33986314D03*
X31157887Y33703472D03*
X31440730Y33420629D03*
X31723573Y33137786D03*
X32006415Y32854944D03*
X32289258Y32572101D03*
X32572101Y32289258D03*
X32854944Y32006415D03*
X33137786Y31723573D03*
X33420629Y31440730D03*
X33703472Y31157887D03*
X33986314Y30875045D03*
X34269157Y30592202D03*
D26*
X34269157Y29407798D03*
X33986314Y29124955D03*
X33703472Y28842113D03*
X33420629Y28559270D03*
X33137786Y28276427D03*
X32854944Y27993585D03*
X32572101Y27710742D03*
X32289258Y27427899D03*
X32006415Y27145056D03*
X31723573Y26862214D03*
X31440730Y26579371D03*
X31157887Y26296528D03*
X30875045Y26013686D03*
X30592202Y25730843D03*
D25*
X29407798Y25730843D03*
X29124955Y26013686D03*
X28842113Y26296528D03*
X28559270Y26579371D03*
X28276427Y26862214D03*
X27993585Y27145056D03*
X27710742Y27427899D03*
X27427899Y27710742D03*
X27145056Y27993585D03*
X26862214Y28276427D03*
X26579371Y28559270D03*
X26296528Y28842113D03*
X26013686Y29124955D03*
X25730843Y29407798D03*
D26*
X25730843Y30592202D03*
X26013686Y30875045D03*
X26296528Y31157887D03*
X26579371Y31440730D03*
X26862214Y31723573D03*
X27145056Y32006415D03*
X27427899Y32289258D03*
X27710742Y32572101D03*
X27993585Y32854944D03*
X28276427Y33137786D03*
X28559270Y33420629D03*
X28842113Y33703472D03*
X29124955Y33986314D03*
X29407798Y34269157D03*
G04 #@! TD*
D27*
G04 #@! TO.C,C4*
X22692500Y29750000D03*
X21557500Y29750000D03*
G04 #@! TD*
D18*
G04 #@! TO.C,C11*
X37537500Y28200000D03*
X39262500Y28200000D03*
G04 #@! TD*
D14*
G04 #@! TO.C,D1*
X23025000Y33695000D03*
X23025000Y35195000D03*
D15*
X17925000Y35195000D03*
D14*
X17925000Y33695000D03*
G04 #@! TD*
D18*
G04 #@! TO.C,C9*
X36337500Y31400000D03*
X38062500Y31400000D03*
G04 #@! TD*
D27*
G04 #@! TO.C,C3*
X22692500Y28775000D03*
X21557500Y28775000D03*
G04 #@! TD*
D13*
G04 #@! TO.C,C19*
X34350000Y35162500D03*
X34350000Y33437500D03*
G04 #@! TD*
D28*
G04 #@! TO.C,R6*
X21502500Y30750000D03*
X22697500Y30750000D03*
G04 #@! TD*
D29*
G04 #@! TO.C,C13*
X31762500Y47700000D03*
X30037500Y47700000D03*
G04 #@! TD*
D30*
G04 #@! TO.C,C10*
X24265120Y28134880D03*
X25484880Y26915120D03*
G04 #@! TD*
D14*
G04 #@! TO.C,D2*
X23025000Y14645000D03*
X23025000Y16145000D03*
D15*
X17925000Y16145000D03*
D14*
X17925000Y14645000D03*
G04 #@! TD*
D31*
G04 #@! TO.C,U2*
X31905000Y37400000D03*
X30635000Y37400000D03*
X29365000Y37400000D03*
X28095000Y37400000D03*
X28095000Y44600000D03*
X29365000Y44600000D03*
X30635000Y44600000D03*
X31905000Y44600000D03*
G04 #@! TD*
D18*
G04 #@! TO.C,C7*
X44137500Y36825000D03*
X45862500Y36825000D03*
G04 #@! TD*
D29*
G04 #@! TO.C,C6*
X21537500Y27450000D03*
X19812500Y27450000D03*
G04 #@! TD*
D14*
G04 #@! TO.C,D4*
X42075000Y33695000D03*
X42075000Y35195000D03*
D15*
X36975000Y35195000D03*
D14*
X36975000Y33695000D03*
G04 #@! TD*
D13*
G04 #@! TO.C,C16*
X15400000Y37162500D03*
X15400000Y35437500D03*
G04 #@! TD*
G04 #@! TO.C,C8*
X31850000Y23300000D03*
X31850000Y21575000D03*
G04 #@! TD*
M02*
